<?xml version="1.0" encoding="UTF-8"?>
<!-- Generator: visioncortex VTracer 0.6.12 -->
<svg version="1.1" xmlns="http://www.w3.org/2000/svg" width="512" height="512">
<path d="M0 0 C2.327 0.047 4.65 0.041 6.977 0.028 C8.471 0.039 9.964 0.053 11.458 0.071 C11.801 0.07 11.801 0.07 13.541 0.065 C18.515 0.21 21.344 1.597 25.2 4.672 C29.225 9.133 30.276 12.454 30.762 18.36 C30.846 19.354 30.93 20.348 31.016 21.372 C31.077 22.131 31.137 22.89 31.2 23.672 C32.25 24.059 33.301 24.446 34.383 24.844 C41.763 27.577 49.057 30.356 56.2 33.672 C56.719 33.19 57.239 32.708 57.774 32.211 C62.587 27.852 65.923 25.043 72.512 24.297 C81.708 25.233 87.332 31.182 93.512 37.485 C94.309 38.267 95.107 39.048 95.928 39.854 C101.268 45.23 104.659 49.421 105.637 57.11 C104.74 64.418 100.859 69.225 96.2 74.672 C96.67 75.651 97.141 76.629 97.625 77.637 C100.919 84.551 104.005 91.315 106.2 98.672 C106.924 98.71 107.649 98.747 108.395 98.786 C120.172 99.586 120.172 99.586 124.633 104.133 C128.701 108.858 129.373 111.795 129.438 117.84 C129.446 118.553 129.454 119.266 129.462 120.001 C129.476 121.513 129.487 123.026 129.495 124.538 C129.512 126.834 129.556 129.129 129.6 131.424 C129.61 132.896 129.619 134.368 129.625 135.84 C129.643 136.52 129.661 137.199 129.679 137.899 C129.654 143.328 128.189 146.303 125.2 150.672 C120.089 154.719 116.347 155.819 109.95 155.735 C109.058 155.726 108.166 155.717 107.247 155.708 C106.909 155.702 106.909 155.702 105.2 155.672 C104.993 156.869 104.787 158.065 104.575 159.297 C103.323 165.076 100.879 170.281 98.442 175.633 C97.2 178.672 97.2 178.672 97.2 181.672 C98.294 183.069 99.449 184.418 100.637 185.735 C104.511 190.568 105.714 194.503 105.2 200.672 C103.461 206.974 99.622 211.058 95.2 215.672 C94.312 216.612 93.423 217.552 92.508 218.52 C82.381 229.012 82.381 229.012 75.454 230.106 C67.69 230.117 63.559 228.773 57.762 223.422 C57.247 222.845 56.731 222.267 56.2 221.672 C50.478 223.478 45.105 225.88 39.637 228.333 C36.437 229.58 33.596 230.253 30.2 230.672 C30.246 231.374 30.293 232.075 30.34 232.797 C30.592 239.42 30.242 244.294 26.2 249.672 C21.157 254.664 15.718 255.24 8.828 255.277 C7.446 255.264 6.063 255.243 4.681 255.214 C2.572 255.172 0.466 255.173 -1.644 255.18 C-15.033 255.077 -15.033 255.077 -20.664 249.989 C-21.142 249.41 -21.62 248.831 -22.113 248.235 C-22.604 247.659 -23.095 247.082 -23.601 246.489 C-25.937 242.951 -25.917 239.574 -25.863 235.422 C-25.854 234.53 -25.845 233.638 -25.835 232.719 C-25.824 232.044 -25.812 231.368 -25.8 230.672 C-26.444 230.525 -27.087 230.378 -27.75 230.227 C-34.654 228.513 -40.645 225.972 -46.953 222.684 C-49.8 221.672 -49.8 221.672 -51.984 222.344 C-53.69 223.592 -55.336 224.841 -56.925 226.235 C-60.786 229.508 -62.565 229.867 -67.55 229.985 C-68.576 230.022 -69.602 230.06 -70.66 230.098 C-78.472 229.039 -83.767 222.007 -89.05 216.672 C-89.865 215.865 -90.68 215.058 -91.519 214.227 C-92.298 213.446 -93.076 212.665 -93.878 211.86 C-94.231 211.506 -94.231 211.506 -96.016 209.715 C-100.186 204.941 -100.226 200.754 -100.121 194.586 C-99.488 188.831 -95.877 185.458 -91.8 181.672 C-93.606 175.951 -96.008 170.578 -98.46 165.11 C-99.708 161.91 -100.381 159.069 -100.8 155.672 C-101.357 155.707 -101.914 155.742 -102.488 155.778 C-108.936 156.007 -114.669 155.552 -119.597 151.02 C-125.452 144.427 -125.079 138.105 -125.15 129.641 C-125.167 128.212 -125.194 126.784 -125.232 125.356 C-125.613 111.063 -125.613 111.063 -121.18 105.111 C-117.552 101.329 -114.82 99.824 -109.683 99.438 C-106.71 99.424 -103.768 99.497 -100.8 99.672 C-100.615 98.497 -100.429 97.321 -100.238 96.11 C-99.074 90.613 -96.628 85.836 -94.013 80.903 C-91.646 76.218 -91.646 76.218 -92.437 73.415 C-93.712 71.786 -95.036 70.196 -96.363 68.61 C-99.508 64.82 -99.986 62.211 -100.113 57.422 C-100.15 56.51 -100.188 55.597 -100.226 54.657 C-99.119 46.897 -93.38 41.76 -88.05 36.485 C-87.711 36.136 -87.711 36.136 -85.996 34.37 C-80.769 29.148 -75.72 25.154 -68.238 24.235 C-60.651 25.2 -55.622 29 -49.8 33.672 C-49.038 33.274 -48.277 32.876 -47.492 32.465 C-32.304 24.672 -32.304 24.672 -25.8 24.672 C-25.818 24.358 -25.818 24.358 -25.906 22.766 C-26.119 16.038 -25.826 10.404 -21.457 5.016 C-15.175 -0.632 -7.969 -0.174 0 0 Z M-42.8 93.672 C-49.039 101.999 -53.03 112.27 -53.8 122.672 C-53.863 123.359 -53.927 124.047 -53.992 124.754 C-54.769 139.866 -48.786 154.124 -39.113 165.422 C-28.265 176.824 -13.787 183.393 1.95 183.985 C17.957 183.558 31.258 177.667 42.504 166.524 C54.084 154.273 58.717 140.253 58.407 123.547 C57.629 108.999 50.888 95.547 40.2 85.672 C13.866 63.991 -20.775 67.899 -42.8 93.672 Z " fill="#007EB6" transform="translate(181.80029296875,196.32763671875)"/>
<path d="M0 0 C2.008 -0.017 4.016 -0.061 6.024 -0.105 C7.299 -0.114 8.575 -0.122 9.889 -0.131 C11.053 -0.145 12.218 -0.16 13.417 -0.175 C18.018 0.481 21.297 2.493 24.174 6.155 C26.577 11.125 27.107 14.779 26.713 20.295 C27.414 20.465 28.116 20.635 28.838 20.811 C33.568 22.019 37.872 23.221 42.151 25.608 C43.326 26.165 44.502 26.721 45.713 27.295 C48.387 26.314 49.81 25.203 51.901 23.233 C55.661 20.642 59.164 19.901 63.713 20.295 C70.521 22.348 74.624 26.604 79.526 31.608 C80.288 32.355 81.051 33.102 81.836 33.871 C86.398 38.465 89.359 41.94 89.901 48.604 C89.414 54.133 87.994 56.826 83.795 60.494 C82.713 62.295 82.713 62.295 83.373 65.08 C83.815 66.141 84.258 67.202 84.713 68.295 C85.139 69.404 85.564 70.512 86.002 71.655 C86.897 73.926 87.793 76.197 88.69 78.467 C89.713 81.295 89.713 81.295 89.713 83.295 C90.208 83.264 90.208 83.264 92.713 83.108 C98.323 83.13 102.999 84.671 107.088 88.545 C110.824 94.867 111.053 101.064 111.026 108.233 C111.042 109.088 111.058 109.943 111.074 110.824 C111.079 116.89 110.607 123.183 106.261 127.857 C102.204 131.323 99.819 132.425 94.588 132.358 C93.678 132.349 92.768 132.34 91.83 132.33 C91.132 132.319 90.433 132.307 89.713 132.295 C89.614 133.149 89.515 134.002 89.412 134.881 C88.406 139.793 86.083 143.841 83.795 148.272 C82.713 151.295 82.713 151.295 83.408 153.526 C84.513 155.024 85.642 156.506 86.776 157.983 C89.142 162.028 90.291 165.6 89.713 170.295 C87.442 176.606 83.596 181.007 78.838 185.608 C78.239 186.214 77.639 186.821 77.022 187.446 C72.491 191.913 67.952 195.72 61.276 195.733 C55.634 195.552 51.707 193.289 47.713 189.295 C42.631 189.781 38.163 192.184 33.553 194.237 C30.713 195.295 30.713 195.295 26.713 195.295 C26.775 196.471 26.837 197.646 26.901 198.858 C26.874 203.846 25.815 208.073 22.283 211.807 C15.996 217.265 9.88 216.543 1.963 216.608 C0.795 216.637 -0.373 216.666 -1.576 216.696 C-8.376 216.746 -12.834 216.51 -18.287 212.295 C-22.141 207.122 -22.998 202.67 -23.287 196.295 C-24.144 195.969 -25.001 195.643 -25.885 195.307 C-31.734 193.071 -37.559 190.826 -43.287 188.295 C-43.769 188.717 -44.251 189.138 -44.748 189.573 C-45.379 190.12 -46.011 190.668 -46.662 191.233 C-47.288 191.778 -47.915 192.323 -48.56 192.885 C-51.425 195.224 -53.396 195.503 -57.037 195.608 C-57.877 195.645 -58.718 195.682 -59.584 195.721 C-66.467 194.637 -71.343 188.544 -76.037 183.795 C-76.708 183.131 -77.38 182.467 -78.072 181.783 C-78.394 181.461 -78.394 181.461 -80.021 179.826 C-80.601 179.244 -81.181 178.662 -81.778 178.063 C-85.376 173.848 -85.714 170.152 -85.611 164.764 C-85.139 161.166 -83.58 159.047 -81.287 156.295 C-80.281 154.966 -79.28 153.633 -78.287 152.295 C-78.492 151.861 -78.492 151.861 -79.529 149.662 C-80.068 148.51 -80.607 147.358 -81.162 146.17 C-81.696 145.033 -82.229 143.896 -82.779 142.725 C-84.146 139.616 -85.273 136.533 -86.287 133.295 C-86.691 133.246 -86.691 133.246 -88.736 132.998 C-99.696 131.465 -99.696 131.465 -103.287 127.295 C-107.328 121.406 -106.73 115.157 -106.662 108.295 C-106.673 107.132 -106.685 105.97 -106.697 104.772 C-106.674 98.016 -106.504 92.907 -101.822 87.651 C-96.095 83.108 -92.352 83.177 -85.287 83.295 C-85.176 82.431 -85.065 81.568 -84.951 80.678 C-84.06 76.137 -82.175 72.285 -80.248 68.1 C-79.242 65.164 -79.079 64.095 -80.287 61.295 C-81.6 59.613 -82.933 57.945 -84.287 56.295 C-85.176 53.627 -85.508 51.81 -85.599 49.045 C-85.637 48.318 -85.674 47.591 -85.713 46.842 C-84.542 39.84 -79.371 34.858 -74.537 30.045 C-73.954 29.434 -73.372 28.823 -72.771 28.194 C-68.331 23.733 -63.776 20.501 -57.229 20.201 C-52.284 20.576 -49.179 22.376 -45.287 25.295 C-43.513 26.6 -43.513 26.6 -41.287 27.295 C-38.263 26.213 -38.263 26.213 -34.912 24.483 C-30.633 22.293 -27.078 20.852 -22.287 20.295 C-22.333 19.643 -22.38 18.991 -22.427 18.319 C-22.72 11.242 -21.389 7.894 -16.724 2.483 C-12.318 -1.158 -5.369 0.032 0 0 Z M-27.287 72.295 C-28.153 72.873 -29.019 73.45 -29.912 74.045 C-38.499 82.18 -43.472 93.214 -44.525 104.951 C-44.88 118.533 -40.315 131.047 -31.037 141.045 C-22.067 149.369 -10.493 154.364 1.776 154.733 C14.912 154.196 26.269 149.529 35.713 140.295 C46.005 127.447 48.987 115.521 47.713 99.295 C45.396 86.788 37.859 76.727 27.713 69.295 C9.436 58.296 -10.369 59.779 -27.287 72.295 Z " fill="#008BCC" transform="translate(356.286865234375,49.704833984375)"/>
<path d="M0 0 C2 2 2 2 2.375 5.438 C2 9 2 9 0.285 10.762 C-2.612 12.332 -3.746 12.078 -6.938 11.375 C-7.469 11.272 -7.469 11.272 -10.16 10.75 C-11.427 10.502 -12.694 10.255 -14 10 C-48.89 3.781 -82.997 7.27 -115 23 C-116.116 23.544 -117.233 24.088 -118.383 24.648 C-154.816 43.348 -181.946 76.531 -194.465 115.323 C-195.756 119.521 -196.908 123.747 -198 128 C-198.09 128.346 -198.09 128.346 -198.548 130.096 C-208.179 168.966 -198.477 211.381 -178.436 245.142 C-173.37 253.444 -167.61 260.878 -161 268 C-160.469 268.575 -159.938 269.15 -159.391 269.742 C-133.341 297.618 -95.328 316.905 -56.857 318.288 C-41.51 318.706 -25.946 318.892 -11 315 C-10.608 314.901 -10.608 314.901 -8.624 314.398 C33.304 303.495 67.718 277.702 89.647 240.381 C100.017 222.129 109.895 198.348 109 177 C108.319 177.969 107.639 178.939 106.938 179.938 C104.679 182.66 104.014 182.996 100.375 184 C97 184 97 184 94 182 C93.125 180.25 93.125 180.25 93 178 C94.703 173.209 97.502 170.292 101.094 166.867 C103.7 164.314 106.05 161.567 108.422 158.797 C108.943 158.204 109.463 157.611 110 157 C110.219 156.714 110.219 156.714 111.328 155.266 C113 154 113 154 115.895 153.57 C119.724 154.1 120.95 155.189 123.688 157.875 C129.161 163.174 129.161 163.174 132.09 165.578 C133.091 166.419 134.093 167.259 135.125 168.125 C136.056 168.891 136.986 169.656 137.945 170.445 C140 173 140 173 140.43 176.68 C140 180 140 180 138 182 C134.875 182.562 134.875 182.562 131 182 C128.052 179.937 125.518 177.564 123 175 C122.841 176.296 122.683 177.591 122.52 178.926 C116.593 224.995 95.886 266.605 59 295.938 C32.057 316.411 -1.639 330.853 -35.848 331.238 C-36.21 331.243 -36.21 331.243 -38.046 331.268 C-87.707 331.805 -130.774 316.141 -166.56 281.416 C-189.14 259.218 -203.254 230.402 -211 200 C-211.181 199.293 -211.362 198.587 -211.548 197.859 C-217.227 174.153 -216.084 145.436 -210 122 C-209.818 121.255 -209.636 120.51 -209.449 119.742 C-206.612 108.262 -202.139 97.627 -197 87 C-196.728 86.435 -196.728 86.435 -195.352 83.574 C-187.769 68.724 -177.608 55.868 -166 44 C-165.288 43.227 -164.577 42.453 -163.844 41.656 C-125.796 1.267 -53.216 -20.087 0 0 Z " fill="#000000" transform="translate(230,161)"/>
<path d="M0 0 C2.327 0.047 4.65 0.041 6.977 0.028 C8.471 0.039 9.964 0.053 11.458 0.071 C11.801 0.07 11.801 0.07 13.541 0.065 C18.515 0.21 21.344 1.597 25.2 4.672 C29.225 9.133 30.276 12.454 30.762 18.36 C30.846 19.354 30.93 20.348 31.016 21.372 C31.077 22.131 31.137 22.89 31.2 23.672 C32.25 24.059 33.301 24.446 34.383 24.844 C41.763 27.577 49.057 30.356 56.2 33.672 C56.719 33.19 57.239 32.708 57.774 32.211 C62.587 27.852 65.923 25.043 72.512 24.297 C81.708 25.233 87.332 31.182 93.512 37.485 C94.309 38.267 95.107 39.048 95.928 39.854 C101.268 45.23 104.659 49.421 105.637 57.11 C104.74 64.418 100.859 69.225 96.2 74.672 C96.67 75.651 97.141 76.629 97.625 77.637 C100.919 84.551 104.005 91.315 106.2 98.672 C106.924 98.71 107.649 98.747 108.395 98.786 C120.172 99.586 120.172 99.586 124.633 104.133 C128.701 108.858 129.373 111.795 129.438 117.84 C129.446 118.553 129.454 119.266 129.462 120.001 C129.476 121.513 129.487 123.026 129.495 124.538 C129.512 126.834 129.556 129.129 129.6 131.424 C129.61 132.896 129.619 134.368 129.625 135.84 C129.643 136.52 129.661 137.199 129.679 137.899 C129.654 143.328 128.189 146.303 125.2 150.672 C120.089 154.719 116.347 155.819 109.95 155.735 C109.058 155.726 108.166 155.717 107.247 155.708 C106.909 155.702 106.909 155.702 105.2 155.672 C104.993 156.869 104.787 158.065 104.575 159.297 C103.323 165.076 100.879 170.281 98.442 175.633 C97.2 178.672 97.2 178.672 97.2 181.672 C98.294 183.069 99.449 184.418 100.637 185.735 C104.511 190.568 105.714 194.503 105.2 200.672 C103.461 206.974 99.622 211.058 95.2 215.672 C94.312 216.612 93.423 217.552 92.508 218.52 C82.381 229.012 82.381 229.012 75.454 230.106 C67.69 230.117 63.559 228.773 57.762 223.422 C57.247 222.845 56.731 222.267 56.2 221.672 C50.478 223.478 45.105 225.88 39.637 228.333 C36.437 229.58 33.596 230.253 30.2 230.672 C30.246 231.374 30.293 232.075 30.34 232.797 C30.592 239.42 30.242 244.294 26.2 249.672 C21.157 254.664 15.718 255.24 8.828 255.277 C7.446 255.264 6.063 255.243 4.681 255.214 C2.572 255.172 0.466 255.173 -1.644 255.18 C-15.033 255.077 -15.033 255.077 -20.664 249.989 C-21.142 249.41 -21.62 248.831 -22.113 248.235 C-22.604 247.659 -23.095 247.082 -23.601 246.489 C-25.937 242.951 -25.917 239.574 -25.863 235.422 C-25.854 234.53 -25.845 233.638 -25.835 232.719 C-25.824 232.044 -25.812 231.368 -25.8 230.672 C-26.444 230.525 -27.087 230.378 -27.75 230.227 C-34.654 228.513 -40.645 225.972 -46.953 222.684 C-49.8 221.672 -49.8 221.672 -51.984 222.344 C-53.69 223.592 -55.336 224.841 -56.925 226.235 C-60.786 229.508 -62.565 229.867 -67.55 229.985 C-68.576 230.022 -69.602 230.06 -70.66 230.098 C-78.472 229.039 -83.767 222.007 -89.05 216.672 C-89.865 215.865 -90.68 215.058 -91.519 214.227 C-92.298 213.446 -93.076 212.665 -93.878 211.86 C-94.231 211.506 -94.231 211.506 -96.016 209.715 C-100.186 204.941 -100.226 200.754 -100.121 194.586 C-99.488 188.831 -95.877 185.458 -91.8 181.672 C-93.606 175.951 -96.008 170.578 -98.46 165.11 C-99.708 161.91 -100.381 159.069 -100.8 155.672 C-101.357 155.707 -101.914 155.742 -102.488 155.778 C-108.936 156.007 -114.669 155.552 -119.597 151.02 C-125.452 144.427 -125.079 138.105 -125.15 129.641 C-125.167 128.212 -125.194 126.784 -125.232 125.356 C-125.613 111.063 -125.613 111.063 -121.18 105.111 C-117.552 101.329 -114.82 99.824 -109.683 99.438 C-106.71 99.424 -103.768 99.497 -100.8 99.672 C-100.615 98.497 -100.429 97.321 -100.238 96.11 C-99.074 90.613 -96.628 85.836 -94.013 80.903 C-91.646 76.218 -91.646 76.218 -92.437 73.415 C-93.712 71.786 -95.036 70.196 -96.363 68.61 C-99.508 64.82 -99.986 62.211 -100.113 57.422 C-100.15 56.51 -100.188 55.597 -100.226 54.657 C-99.119 46.897 -93.38 41.76 -88.05 36.485 C-87.711 36.136 -87.711 36.136 -85.996 34.37 C-80.769 29.148 -75.72 25.154 -68.238 24.235 C-60.651 25.2 -55.622 29 -49.8 33.672 C-49.038 33.274 -48.277 32.876 -47.492 32.465 C-32.304 24.672 -32.304 24.672 -25.8 24.672 C-25.818 24.358 -25.818 24.358 -25.906 22.766 C-26.119 16.038 -25.826 10.404 -21.457 5.016 C-15.175 -0.632 -7.969 -0.174 0 0 Z M-12.64 12.969 C-14.616 15.87 -14.258 19.272 -14.3 22.672 C-14.392 30.021 -14.392 30.021 -16.007 32.598 C-18.313 33.98 -20.342 34.374 -22.988 34.86 C-31.94 36.893 -40.046 41.347 -47.957 45.918 C-50.514 46.964 -52.059 47.141 -54.8 46.672 C-57.525 44.255 -59.803 41.598 -62.203 38.86 C-64.8 36.672 -64.8 36.672 -67.68 36.301 C-71.495 36.755 -72.634 37.746 -75.324 40.434 C-76.117 41.224 -76.909 42.013 -77.726 42.827 C-78.534 43.663 -79.343 44.499 -80.175 45.36 C-80.591 45.768 -80.591 45.768 -82.695 47.834 C-88.7 53.923 -88.7 53.923 -89.154 57.311 C-88.522 61.532 -84.964 63.53 -81.867 66.196 C-79.135 69.47 -78.787 71.422 -78.8 75.672 C-79.896 78.36 -80.992 80.624 -82.425 83.11 C-85.493 88.789 -87.931 94.364 -89.8 100.547 C-90.007 101.231 -90.214 101.915 -90.428 102.619 C-91.8 107.325 -91.8 107.325 -91.8 109.672 C-92.427 109.685 -92.427 109.685 -95.597 109.75 C-97.248 109.807 -98.899 109.864 -100.55 109.922 C-101.375 109.937 -102.2 109.951 -103.05 109.965 C-103.85 109.998 -104.649 110.03 -105.472 110.063 C-106.205 110.084 -106.938 110.105 -107.694 110.126 C-110.722 110.911 -111.923 112.199 -113.8 114.672 C-114.302 117.358 -114.302 117.358 -114.296 120.391 C-114.297 121.488 -114.298 122.585 -114.298 123.715 C-114.278 124.856 -114.258 125.997 -114.238 127.172 C-114.245 128.313 -114.252 129.454 -114.259 130.629 C-114.196 138.964 -114.196 138.964 -112.504 141.996 C-109.763 144.693 -106.44 144.271 -102.8 144.297 C-95.159 144.433 -95.159 144.433 -91.8 146.672 C-90.914 149.368 -90.914 149.368 -90.113 152.797 C-87.837 161.385 -83.963 168.861 -79.8 176.672 C-78.369 179.534 -78.459 181.501 -78.8 184.672 C-80.734 187.016 -80.734 187.016 -83.238 189.172 C-86.135 191.675 -87.603 193.042 -88.757 196.723 C-88.8 199.672 -88.8 199.672 -87.753 201.622 C-87.191 202.195 -86.629 202.769 -86.05 203.36 C-85.406 204.022 -84.761 204.685 -84.097 205.368 C-83.339 206.128 -82.581 206.889 -81.8 207.672 C-80.906 208.667 -80.016 209.664 -79.128 210.665 C-78.187 211.689 -77.244 212.713 -76.3 213.735 C-75.424 214.695 -74.547 215.656 -73.644 216.645 C-70.8 218.672 -70.8 218.672 -67.242 218.766 C-63.317 217.519 -61.878 216.216 -59.238 213.11 C-55.582 208.81 -55.582 208.81 -51.945 208.168 C-48.12 208.781 -45.315 210.333 -42.05 212.297 C-34.766 216.46 -27.3 219.07 -19.308 221.543 C-15.8 222.672 -15.8 222.672 -14.8 223.672 C-14.631 227.254 -14.503 230.829 -14.458 234.415 C-14.431 235.167 -14.403 235.92 -14.375 236.696 C-14.36 237.386 -14.345 238.076 -14.33 238.787 C-13.8 240.672 -13.8 240.672 -12.122 242.394 C-7.593 244.888 -2.35 244.141 2.7 244.11 C3.841 244.13 4.981 244.15 6.157 244.17 C7.254 244.17 8.351 244.169 9.481 244.168 C10.482 244.17 11.483 244.172 12.514 244.174 C15.945 243.533 17.115 242.433 19.2 239.672 C19.746 237.658 19.746 237.658 19.809 235.563 C19.841 234.809 19.874 234.055 19.907 233.278 C19.921 232.501 19.935 231.723 19.95 230.922 C19.979 230.13 20.009 229.337 20.04 228.52 C20.11 226.571 20.157 224.622 20.2 222.672 C20.743 222.492 21.286 222.311 21.845 222.125 C48.763 213.109 48.763 213.109 53.2 208.672 C55.762 208.172 55.762 208.172 59.2 208.672 C62.721 211.151 65.887 214.079 68.625 217.403 C70.2 218.672 70.2 218.672 72.521 218.985 C77.756 218.374 80.969 213.655 84.512 210.047 C85.348 209.239 86.184 208.431 87.045 207.598 C87.835 206.805 88.625 206.013 89.438 205.196 C90.16 204.473 90.883 203.75 91.627 203.006 C93.643 200.015 93.64 198.212 93.2 194.672 C91.266 192.329 91.266 192.329 88.762 190.172 C86.018 187.802 84.433 186.309 83.18 182.887 C83.207 178.448 84.834 175.564 86.95 171.735 C87.676 170.373 88.4 169.009 89.122 167.645 C89.475 166.98 89.828 166.315 90.192 165.63 C93.131 159.919 94.95 154.164 96.454 147.93 C96.577 147.558 96.577 147.558 97.2 145.672 C100.815 143.864 105.334 144.342 109.346 144.243 C114.71 144.007 114.71 144.007 116.905 142.508 C119.762 138.457 118.665 132.503 118.637 127.735 C118.657 126.542 118.677 125.349 118.698 124.12 C118.697 122.973 118.696 121.826 118.696 120.645 C118.698 119.596 118.7 118.547 118.701 117.466 C118.073 113.966 117.02 112.784 114.2 110.672 C110.718 110.306 107.443 110.26 103.956 110.36 C101.852 110.336 101.852 110.336 98.2 109.672 C95.604 106.009 94.649 102.043 93.512 97.735 C91.708 91.573 89.076 86.292 85.842 80.786 C82.327 74.655 82.327 74.655 83.2 70.672 C85.133 68.461 85.133 68.461 87.637 66.297 C90.56 63.495 92.109 61.888 93.7 58.11 C92.93 52.82 89.913 50.325 86.2 46.672 C85.832 46.264 85.832 46.264 83.973 44.2 C80.698 40.648 78.123 38.061 73.637 36.172 C68.444 36.928 65.753 39.996 62.2 43.672 C61.772 44.265 61.344 44.858 60.903 45.469 C59.2 46.672 59.2 46.672 55.981 46.594 C51.767 45.567 48.476 43.99 44.7 41.922 C37.97 38.379 31.277 35.816 24.016 33.583 C21.2 32.672 21.2 32.672 20.2 31.672 C20.03 28.335 19.902 25.004 19.858 21.663 C19.728 18.348 19.559 16.151 17.537 13.462 C14.575 11.194 12.93 11.17 9.227 11.176 C8.08 11.176 6.934 11.175 5.752 11.174 C4.559 11.194 3.366 11.214 2.137 11.235 C0.94 11.228 -0.257 11.221 -1.49 11.213 C-10.24 11.277 -10.24 11.277 -12.64 12.969 Z " fill="#000101" transform="translate(181.80029296875,196.32763671875)"/>
<path d="M0 0 C2.008 -0.017 4.016 -0.061 6.024 -0.105 C7.299 -0.114 8.575 -0.122 9.889 -0.131 C11.053 -0.145 12.218 -0.16 13.417 -0.175 C18.018 0.481 21.297 2.493 24.174 6.155 C26.577 11.125 27.107 14.779 26.713 20.295 C27.414 20.465 28.116 20.635 28.838 20.811 C33.568 22.019 37.872 23.221 42.151 25.608 C43.326 26.165 44.502 26.721 45.713 27.295 C48.387 26.314 49.81 25.203 51.901 23.233 C55.661 20.642 59.164 19.901 63.713 20.295 C70.521 22.348 74.624 26.604 79.526 31.608 C80.288 32.355 81.051 33.102 81.836 33.871 C86.398 38.465 89.359 41.94 89.901 48.604 C89.414 54.133 87.994 56.826 83.795 60.494 C82.713 62.295 82.713 62.295 83.373 65.08 C83.815 66.141 84.258 67.202 84.713 68.295 C85.139 69.404 85.564 70.512 86.002 71.655 C86.897 73.926 87.793 76.197 88.69 78.467 C89.713 81.295 89.713 81.295 89.713 83.295 C90.208 83.264 90.208 83.264 92.713 83.108 C98.323 83.13 102.999 84.671 107.088 88.545 C110.824 94.867 111.053 101.064 111.026 108.233 C111.042 109.088 111.058 109.943 111.074 110.824 C111.079 116.89 110.607 123.183 106.261 127.857 C102.204 131.323 99.819 132.425 94.588 132.358 C93.678 132.349 92.768 132.34 91.83 132.33 C91.132 132.319 90.433 132.307 89.713 132.295 C89.614 133.149 89.515 134.002 89.412 134.881 C88.406 139.793 86.083 143.841 83.795 148.272 C82.713 151.295 82.713 151.295 83.408 153.526 C84.513 155.024 85.642 156.506 86.776 157.983 C89.142 162.028 90.291 165.6 89.713 170.295 C87.442 176.606 83.596 181.007 78.838 185.608 C78.239 186.214 77.639 186.821 77.022 187.446 C72.491 191.913 67.952 195.72 61.276 195.733 C55.634 195.552 51.707 193.289 47.713 189.295 C42.631 189.781 38.163 192.184 33.553 194.237 C30.713 195.295 30.713 195.295 26.713 195.295 C26.775 196.471 26.837 197.646 26.901 198.858 C26.874 203.846 25.815 208.073 22.283 211.807 C15.996 217.265 9.88 216.543 1.963 216.608 C0.795 216.637 -0.373 216.666 -1.576 216.696 C-8.376 216.746 -12.834 216.51 -18.287 212.295 C-22.141 207.122 -22.998 202.67 -23.287 196.295 C-24.144 195.969 -25.001 195.643 -25.885 195.307 C-31.734 193.071 -37.559 190.826 -43.287 188.295 C-43.769 188.717 -44.251 189.138 -44.748 189.573 C-45.379 190.12 -46.011 190.668 -46.662 191.233 C-47.288 191.778 -47.915 192.323 -48.56 192.885 C-51.425 195.224 -53.396 195.503 -57.037 195.608 C-57.877 195.645 -58.718 195.682 -59.584 195.721 C-66.467 194.637 -71.343 188.544 -76.037 183.795 C-76.708 183.131 -77.38 182.467 -78.072 181.783 C-78.394 181.461 -78.394 181.461 -80.021 179.826 C-80.601 179.244 -81.181 178.662 -81.778 178.063 C-85.376 173.848 -85.714 170.152 -85.611 164.764 C-85.139 161.166 -83.58 159.047 -81.287 156.295 C-80.281 154.966 -79.28 153.633 -78.287 152.295 C-78.492 151.861 -78.492 151.861 -79.529 149.662 C-80.068 148.51 -80.607 147.358 -81.162 146.17 C-81.696 145.033 -82.229 143.896 -82.779 142.725 C-84.146 139.616 -85.273 136.533 -86.287 133.295 C-86.691 133.246 -86.691 133.246 -88.736 132.998 C-99.696 131.465 -99.696 131.465 -103.287 127.295 C-107.328 121.406 -106.73 115.157 -106.662 108.295 C-106.673 107.132 -106.685 105.97 -106.697 104.772 C-106.674 98.016 -106.504 92.907 -101.822 87.651 C-96.095 83.108 -92.352 83.177 -85.287 83.295 C-85.176 82.431 -85.065 81.568 -84.951 80.678 C-84.06 76.137 -82.175 72.285 -80.248 68.1 C-79.242 65.164 -79.079 64.095 -80.287 61.295 C-81.6 59.613 -82.933 57.945 -84.287 56.295 C-85.176 53.627 -85.508 51.81 -85.599 49.045 C-85.637 48.318 -85.674 47.591 -85.713 46.842 C-84.542 39.84 -79.371 34.858 -74.537 30.045 C-73.954 29.434 -73.372 28.823 -72.771 28.194 C-68.331 23.733 -63.776 20.501 -57.229 20.201 C-52.284 20.576 -49.179 22.376 -45.287 25.295 C-43.513 26.6 -43.513 26.6 -41.287 27.295 C-38.263 26.213 -38.263 26.213 -34.912 24.483 C-30.633 22.293 -27.078 20.852 -22.287 20.295 C-22.333 19.643 -22.38 18.991 -22.427 18.319 C-22.72 11.242 -21.389 7.894 -16.724 2.483 C-12.318 -1.158 -5.369 0.032 0 0 Z M-11.287 13.295 C-11.593 16.03 -11.798 18.678 -11.912 21.42 C-11.951 22.174 -11.989 22.928 -12.029 23.705 C-12.123 25.568 -12.206 27.432 -12.287 29.295 C-12.656 29.374 -12.656 29.374 -14.525 29.776 C-23.17 31.764 -30.851 34.736 -38.537 39.17 C-42.372 40.739 -44.334 40.543 -48.287 39.295 C-50.208 37.535 -51.873 35.718 -53.513 33.694 C-55.287 32.295 -55.287 32.295 -57.537 32.158 C-61.754 33.902 -64.495 36.886 -67.662 40.108 C-68.315 40.737 -68.969 41.367 -69.642 42.016 C-69.948 42.323 -69.948 42.323 -71.498 43.877 C-72.058 44.436 -72.618 44.996 -73.195 45.572 C-74.287 47.295 -74.287 47.295 -74.061 49.402 C-72.801 52.484 -70.355 54.179 -67.881 56.319 C-65.662 59.071 -65.338 60.756 -65.287 64.295 C-66.245 67.025 -67.617 69.468 -69.037 71.983 C-72.415 78.302 -74.733 84.272 -76.287 91.295 C-76.617 92.285 -76.947 93.275 -77.287 94.295 C-78.43 94.356 -79.574 94.416 -80.752 94.479 C-82.243 94.563 -83.733 94.648 -85.224 94.733 C-85.979 94.772 -86.734 94.811 -87.511 94.852 C-93.174 95.182 -93.174 95.182 -94.287 96.295 C-94.539 100.101 -94.472 103.919 -94.474 107.733 C-94.487 108.808 -94.499 109.884 -94.511 110.992 C-94.513 112.019 -94.515 113.046 -94.517 114.104 C-94.521 115.05 -94.526 115.997 -94.53 116.973 C-94.287 119.295 -94.287 119.295 -92.287 121.295 C-89.922 121.596 -87.542 121.79 -85.162 121.92 C-83.881 121.995 -82.599 122.07 -81.279 122.147 C-80.292 122.196 -79.304 122.245 -78.287 122.295 C-76.338 126.705 -74.591 131.151 -72.912 135.67 C-71.074 140.529 -68.987 144.912 -66.205 149.295 C-65.017 151.883 -64.85 153.477 -65.287 156.295 C-67.197 158.508 -69.307 160.25 -71.537 162.135 C-73.287 164.295 -73.287 164.295 -73.92 167.119 C-72.999 171.74 -70.487 173.975 -67.162 177.17 C-66.592 177.763 -66.022 178.356 -65.435 178.967 C-62.653 181.712 -61.01 183.151 -57.111 183.928 C-53.621 183.146 -52.513 182.002 -50.224 179.295 C-46.911 175.392 -46.911 175.392 -43.795 174.908 C-41.084 175.327 -39.538 176.034 -37.224 177.483 C-29.386 182.094 -20.808 185.182 -12.287 188.295 C-12.238 189.283 -12.189 190.27 -12.138 191.287 C-12.101 191.928 -12.101 191.928 -11.912 195.17 C-11.877 195.808 -11.877 195.808 -11.701 199.037 C-11.287 202.295 -11.287 202.295 -9.287 204.295 C-6.964 204.538 -6.964 204.538 -4.095 204.526 C-3.069 204.524 -2.042 204.522 -0.984 204.52 C0.092 204.508 1.167 204.495 2.276 204.483 C2.815 204.482 2.815 204.482 5.547 204.481 C13.573 204.435 13.573 204.435 14.713 203.295 C14.959 199.737 15.098 196.179 15.237 192.615 C15.713 189.295 15.713 189.295 16.783 187.494 C19.716 185.672 22.913 184.884 26.213 183.983 C32.479 182.182 37.774 179.908 43.283 176.334 C46.563 174.932 48.332 175.24 51.713 176.295 C53.908 178.178 53.908 178.178 55.838 180.42 C57.783 182.678 57.783 182.678 59.713 184.295 C64.76 183.732 67.602 179.958 71.026 176.545 C71.355 176.235 71.355 176.235 73.02 174.662 C77.673 170.053 77.673 170.053 77.858 166.584 C76.187 163.242 73.803 161.095 71.112 158.553 C69.713 156.295 69.713 156.295 69.756 153.057 C70.873 148.668 72.595 144.995 74.651 140.983 C77.721 134.766 79.832 129.237 80.713 122.295 C81.845 122.246 82.977 122.197 84.143 122.147 C85.625 122.072 87.106 121.996 88.588 121.92 C89.335 121.889 90.081 121.858 90.85 121.826 C96.487 121.522 96.487 121.522 98.713 119.295 C98.972 117.08 98.972 117.08 98.979 114.358 C98.981 113.381 98.984 112.403 98.987 111.397 C98.979 110.373 98.971 109.35 98.963 108.295 C98.971 107.272 98.979 106.248 98.987 105.194 C98.984 104.216 98.981 103.239 98.979 102.233 C98.978 101.783 98.978 101.783 98.972 99.51 C98.713 97.295 98.713 97.295 96.713 95.295 C94.348 94.995 91.969 94.8 89.588 94.67 C88.307 94.595 87.025 94.521 85.705 94.444 C85.212 94.419 85.212 94.419 82.713 94.295 C80.765 89.886 79.018 85.44 77.338 80.92 C75.796 76.837 74.138 73.103 71.901 69.358 C70.492 66.874 69.641 65.025 68.901 62.233 C70.055 58.059 72.715 56.08 75.963 53.323 C77.713 51.295 77.713 51.295 78.381 49.006 C77.294 44.595 74.22 42.081 71.026 38.983 C70.4 38.337 69.774 37.692 69.129 37.028 C64.557 32.503 64.557 32.503 61.002 31.627 C57.169 32.746 55.379 35.582 52.873 38.545 C50.713 40.295 50.713 40.295 47.869 40.748 C44.064 40.202 41.514 38.9 38.151 37.045 C32.348 33.936 26.66 31.872 20.26 30.217 C17.713 29.295 17.713 29.295 15.713 26.295 C15.337 22.938 15.207 19.603 15.057 16.229 C14.713 13.295 14.713 13.295 12.713 11.295 C10.498 11.036 10.498 11.036 7.776 11.03 C6.799 11.027 5.821 11.024 4.815 11.022 C3.791 11.029 2.768 11.037 1.713 11.045 C0.69 11.037 -0.334 11.03 -1.388 11.022 C-2.366 11.024 -3.343 11.027 -4.349 11.03 C-4.799 11.031 -4.799 11.031 -7.072 11.036 C-9.287 11.295 -9.287 11.295 -11.287 13.295 Z " fill="#000102" transform="translate(356.286865234375,49.704833984375)"/>
<path d="M0 0 C0.747 0.204 1.493 0.407 2.263 0.617 C18.873 5.235 34.604 13.115 48 24 C48.512 24.408 49.024 24.817 49.552 25.237 C73.923 44.731 89.705 70.01 98 100 C98.096 100.338 98.096 100.338 98.582 102.048 C103.859 121.614 103.225 147.525 98 167 C97.828 167.651 97.657 168.302 97.48 168.973 C91.448 191.353 80.699 210.961 65 228 C64.138 228.945 63.275 229.89 62.387 230.863 C38.204 256.193 3.279 271.252 -31.656 272.215 C-53.2 272.473 -53.2 272.473 -57.062 269.312 C-58.348 266.141 -57.987 264.242 -57 261 C-53.515 258.677 -52.309 258.794 -48.215 258.91 C-47.053 258.932 -45.891 258.955 -44.694 258.978 C-43.455 259.006 -42.215 259.034 -40.938 259.062 C-6.172 259.423 25.86 247.764 51.304 223.669 C74.206 201.13 88.005 170.034 88.381 137.888 C88.379 136.584 88.377 135.281 88.375 133.938 C88.374 133.258 88.373 132.578 88.372 131.878 C88.324 120.526 87.394 109.881 84 99 C83.759 98.218 83.517 97.435 83.269 96.629 C73.017 64.437 51.018 37.527 20.975 21.787 C-9.046 6.916 -44.218 4.196 -76.172 14.285 C-108.381 25.161 -132.919 47.47 -149 77 C-150.062 79.314 -151.038 81.642 -152 84 C-151.264 83.676 -150.528 83.353 -149.77 83.02 C-148.794 82.621 -147.818 82.223 -146.812 81.812 C-145.85 81.406 -144.887 81 -143.895 80.582 C-141 80 -141 80 -138.207 81.238 C-136 83 -136 83 -134.875 85.375 C-135.024 88.512 -135.977 89.525 -138.208 91.64 C-142.067 94.568 -146.539 96.403 -150.938 98.375 C-151.914 98.838 -152.89 99.301 -153.896 99.777 C-157.83 101.564 -161.105 102.933 -165.434 103.258 C-169.289 101.368 -170.478 98.26 -172.125 94.5 C-172.463 93.771 -172.8 93.042 -173.148 92.291 C-173.814 90.848 -174.471 89.401 -175.118 87.95 C-175.846 86.34 -176.632 84.758 -177.434 83.184 C-179.808 78.46 -180.618 75.285 -179 70 C-176 68 -176 68 -173.125 67.812 C-168.324 69.637 -167.057 73.494 -165 78 C-162.607 75.05 -160.797 71.905 -158.994 68.569 C-152.434 56.441 -144.467 46.049 -135 36 C-134.401 35.336 -133.801 34.672 -133.184 33.988 C-116.557 16.284 -93.207 5.057 -70 -1 C-68.868 -1.3 -67.736 -1.601 -66.57 -1.91 C-45.446 -6.554 -20.737 -5.964 0 0 Z " fill="#000000" transform="translate(395,24)"/>
<path d="M0 0 C0.49 -0.004 0.49 -0.004 2.973 -0.023 C20.356 0.023 36.174 7.013 48.75 19 C63.833 34.8 68.135 51.749 67.812 72.891 C67.565 79.981 66.483 85.756 63.5 92.25 C63.064 93.267 62.629 94.284 62.18 95.332 C54.324 112.396 40.835 124.566 23.312 131.062 C5.227 137.449 -14.315 134.885 -31.406 126.891 C-48.118 118.007 -58.586 103.455 -64.809 85.848 C-69.592 67.875 -67.083 49.219 -58.375 33 C-48.825 17.864 -34.16 5.451 -16.457 1.168 C-10.969 -0.007 -5.594 -0.044 0 0 Z M-44.5 33.25 C-50.739 41.577 -54.729 51.847 -55.5 62.25 C-55.563 62.937 -55.626 63.624 -55.691 64.332 C-56.468 79.444 -50.486 93.701 -40.812 105 C-29.964 116.401 -15.487 122.971 0.25 123.562 C16.258 123.136 29.559 117.245 40.805 106.102 C52.385 93.85 57.017 79.831 56.707 63.125 C55.93 48.577 49.188 35.125 38.5 25.25 C12.166 3.568 -22.475 7.477 -44.5 33.25 Z " fill="#000101" transform="translate(183.5,256.75)"/>
<path d="M0 0 C11.671 8.863 19.659 21.57 22.586 35.977 C24.592 51.328 21.941 67.141 12.98 79.996 C4.168 91.228 -7.565 100.456 -21.785 103.609 C-40.409 105.836 -56.419 102.803 -71.832 91.809 C-82.664 82.748 -90.61 69.117 -92.02 54.996 C-93.309 36.492 -90.059 22.3 -78.062 7.598 C-57.162 -15.125 -24.851 -16.492 0 0 Z M-64.02 10.996 C-64.886 11.574 -65.752 12.151 -66.645 12.746 C-75.232 20.881 -80.205 31.915 -81.258 43.652 C-81.612 57.234 -77.047 69.748 -67.77 79.746 C-58.8 88.07 -47.226 93.065 -34.957 93.434 C-21.821 92.897 -10.464 88.23 -1.02 78.996 C9.273 66.148 12.254 54.222 10.98 37.996 C8.663 25.489 1.126 15.427 -9.02 7.996 C-27.296 -3.004 -47.102 -1.52 -64.02 10.996 Z " fill="#000102" transform="translate(393.01953125,111.00390625)"/>
<path d="M0 0 C1.938 1 1.938 1 3 3 C2.682 9.926 0.407 15.424 -2.402 21.703 C-2.84 22.703 -3.278 23.704 -3.729 24.734 C-5.122 27.91 -6.53 31.08 -7.938 34.25 C-8.88 36.395 -9.823 38.541 -10.764 40.688 C-12.488 44.611 -14.215 48.533 -15.953 52.45 C-16.301 53.234 -16.649 54.019 -17.007 54.826 C-17.335 55.544 -17.662 56.261 -18 57 C-18.151 57.368 -18.151 57.368 -18.913 59.23 C-20 61 -20 61 -23.438 61.875 C-27 62 -27 62 -30 60 C-31.675 55.555 -30.433 52.772 -28.605 48.539 C-28.474 48.229 -28.474 48.229 -27.808 46.662 C-26.947 44.644 -26.068 42.635 -25.188 40.625 C-24.59 39.237 -23.993 37.848 -23.397 36.458 C-22.191 33.651 -20.977 30.848 -19.757 28.047 C-18.14 24.332 -16.555 20.606 -14.977 16.875 C-14.089 14.791 -13.201 12.708 -12.312 10.625 C-11.903 9.658 -11.494 8.69 -11.073 7.694 C-10.694 6.818 -10.316 5.942 -9.926 5.039 C-9.6 4.278 -9.274 3.517 -8.939 2.733 C-6.983 -0.878 -3.699 -0.302 0 0 Z " fill="#221815" transform="translate(198,293)"/>
<path d="M0 0 C4.485 0.487 6.833 2.137 10.148 4.973 C11.276 5.896 12.403 6.819 13.531 7.742 C14.078 8.198 14.625 8.654 15.188 9.124 C17.39 10.911 19.713 12.518 22.023 14.16 C24.779 16.326 25.701 17.246 27.148 20.535 C26.562 25.027 23.296 27.189 19.911 29.904 C17.84 31.492 15.749 33.05 13.648 34.598 C12.933 35.131 12.218 35.664 11.48 36.213 C3.115 42.428 3.115 42.428 -0.789 42.223 C-4.227 41.41 -4.227 41.41 -6.227 38.41 C-6.254 35.559 -6.254 35.559 -5.227 32.41 C-3.09 30.346 -1.181 28.728 1.211 27.035 C1.81 26.585 2.408 26.135 3.025 25.672 C7.452 22.41 7.452 22.41 9.773 22.41 C6.082 18.481 2.089 15.273 -2.238 12.059 C-4.227 10.41 -4.227 10.41 -6.227 7.41 C-5.767 2.697 -4.974 0.632 0 0 Z " fill="#221815" transform="translate(207.2265625,302.58984375)"/>
<path d="M0 0 C1.938 1.062 1.938 1.062 3 3 C2.958 8.917 2.958 8.917 0.695 11.475 C-1.006 12.853 -2.744 14.096 -4.562 15.312 C-6.749 16.835 -8.878 18.386 -11 20 C-11 20.66 -11 21.32 -11 22 C-9.072 23.58 -7.148 25.051 -5.125 26.5 C0.81 30.81 0.81 30.81 3 33 C3.375 35.938 3.375 35.938 3 39 C1.375 40.938 1.375 40.938 -1 42 C-7.475 41.99 -11.788 37.881 -16.688 34.125 C-17.115 33.806 -17.115 33.806 -19.275 32.191 C-28.836 24.996 -28.836 24.996 -29.555 20.625 C-29 17 -29 17 -26.508 14.375 C-25.397 13.559 -24.268 12.769 -23.125 12 C-22.536 11.58 -21.947 11.16 -21.34 10.727 C-20.141 9.875 -18.935 9.033 -17.723 8.2 C-16.159 7.111 -14.637 5.961 -13.121 4.805 C-12.277 4.168 -11.432 3.531 -10.562 2.875 C-9.821 2.316 -9.08 1.756 -8.316 1.18 C-5.373 -0.319 -3.261 -0.283 0 0 Z " fill="#221815" transform="translate(164,303)"/>
</svg>
