<?xml version="1.0" standalone="no"?>
<!DOCTYPE svg PUBLIC "-//W3C//DTD SVG 20010904//EN"
 "http://www.w3.org/TR/2001/REC-SVG-20010904/DTD/svg10.dtd">
<svg version="1.0" xmlns="http://www.w3.org/2000/svg"
 width="612.000000pt" height="501.000000pt" viewBox="0 0 612.000000 501.000000"
 preserveAspectRatio="xMidYMid meet">
<metadata>
Created by potrace 1.16, written by Peter Selinger 2001-2019
</metadata>
<g transform="translate(0.000000,501.000000) scale(0.100000,-0.100000)"
fill="#000000" stroke="none">
<path d="M4345 4991 c-42 -17 -59 -51 -74 -144 l-16 -92 -47 -6 c-25 -4 -72
-15 -104 -24 -31 -9 -60 -13 -64 -8 -3 4 -30 38 -59 76 -60 76 -75 87 -124 87
-27 0 -56 -16 -139 -79 -150 -113 -157 -140 -68 -259 28 -36 50 -69 50 -73 0
-4 -17 -33 -39 -63 -21 -31 -44 -70 -51 -87 -13 -31 -15 -31 -64 -26 -191 22
-172 23 -204 -9 -30 -31 -45 -93 -59 -256 -6 -64 -5 -68 24 -96 25 -26 41 -31
121 -42 l92 -13 6 -36 c6 -40 30 -138 38 -161 4 -10 -20 -34 -74 -75 -84 -62
-107 -97 -95 -142 3 -16 38 -70 77 -120 122 -162 140 -166 270 -66 31 23 60
43 64 43 4 0 37 -20 73 -44 37 -24 77 -47 90 -51 21 -6 23 -11 17 -49 -3 -22
-9 -73 -13 -113 -6 -70 -5 -73 23 -101 31 -30 93 -45 254 -59 59 -5 69 -3 94
18 23 20 29 38 43 119 9 52 17 96 18 98 2 2 43 11 91 22 49 10 96 21 104 24
10 4 32 -18 70 -70 61 -84 96 -109 144 -100 39 8 226 152 244 189 19 40 7 77
-49 151 -27 36 -49 70 -49 75 0 6 17 35 39 65 21 31 44 70 51 87 13 30 16 31
54 25 23 -4 73 -9 113 -13 70 -6 73 -5 101 23 25 25 31 43 45 136 33 212 21
235 -138 257 -43 6 -80 13 -81 14 -2 1 -12 41 -22 87 -11 47 -22 92 -26 101
-6 13 12 32 72 78 82 64 109 103 98 144 -7 30 -159 232 -181 241 -46 17 -83 6
-159 -50 l-76 -56 -38 30 c-20 16 -59 42 -87 57 -27 16 -51 30 -53 31 -2 1 2
47 9 103 20 155 7 169 -184 195 -133 18 -125 18 -152 7z m54 -631 c178 -30
318 -174 345 -358 25 -179 -72 -355 -241 -434 -55 -26 -83 -33 -153 -36 -179
-8 -325 81 -404 247 -29 61 -31 74 -31 171 0 99 2 109 34 175 57 116 168 205
291 231 71 16 82 16 159 4z M2730 4790 c-288 -21 -619 -131 -857 -285 -353
-230 -603 -555 -737 -959 -20 -60 -36 -114 -36 -120 0 -7 -50 -27 -112 -45
-357 -105 -608 -272 -776 -519 -244 -360 -278 -821 -90 -1249 91 -208 262
-415 447 -539 110 -74 281 -147 419 -178 l62 -14 -2 185 -3 185 -65 23 c-291
99 -503 338 -586 660 -34 136 -36 320 -4 445 97 379 376 597 888 694 68 13
124 25 126 27 1 2 12 57 25 123 60 315 190 567 405 782 201 201 421 321 716
390 83 20 143 26 286 31 l181 6 17 28 c26 44 96 109 154 141 45 26 52 34 52
61 0 18 3 48 6 68 l6 36 -88 11 c-126 16 -311 21 -434 12z M5614 3419 c-37
-51 -135 -132 -174 -144 -16 -5 -20 -15 -20 -49 0 -35 6 -48 36 -77 185 -178
294 -483 294 -824 0 -398 -136 -681 -418 -869 -71 -47 -267 -146 -289 -146
-10 0 -13 -46 -13 -194 l0 -195 51 15 c29 9 103 37 166 64 441 187 712 488
819 909 28 110 54 312 54 421 0 171 -42 421 -97 574 -71 201 -191 393 -326
524 l-44 43 -39 -52z M3291 2471 c-67 -23 -98 -47 -136 -100 -27 -38 -30 -51
-30 -116 0 -65 3 -78 30 -116 36 -51 115 -97 211 -122 181 -48 214 -67 214
-118 0 -41 -9 -58 -41 -74 -37 -20 -93 -19 -135 1 -36 17 -51 36 -70 89 l-11
30 -99 -3 c-119 -4 -134 -8 -134 -32 0 -67 74 -182 138 -214 92 -46 255 -60
373 -32 169 39 263 186 217 337 -28 96 -110 148 -315 200 -82 20 -123 36 -135
50 -23 28 -23 35 7 64 19 20 34 25 72 25 58 0 90 -19 110 -67 l14 -35 112 7
c62 4 114 9 116 12 11 9 -22 101 -47 133 -16 19 -55 49 -87 65 -56 28 -68 30
-190 33 -107 2 -139 -1 -184 -17z M1480 2071 l0 -411 125 0 125 0 2 168 3 167
30 -3 c17 -2 39 -9 50 -16 11 -8 58 -81 103 -165 l83 -151 140 0 c76 0 139 3
139 8 -1 4 -29 61 -64 127 -69 128 -123 201 -164 216 -23 9 -21 11 39 42 49
25 70 42 92 78 54 89 43 208 -26 279 -61 63 -72 65 -389 68 l-288 3 0 -410z
m453 226 c51 -33 36 -115 -24 -136 -18 -6 -65 -11 -105 -11 l-74 0 0 78 c0 43
3 82 8 86 13 14 168 1 195 -17z M2338 2070 l2 -410 343 2 342 3 3 93 3 92
-221 0 -220 0 0 80 0 80 195 0 195 0 0 83 0 82 -192 0 -193 0 -3 68 -3 67 211
0 210 0 0 85 0 85 -337 0 -338 0 3 -410z M3870 2380 l0 -100 130 0 130 0 0
-310 0 -310 125 0 125 0 0 310 0 310 130 0 130 0 0 100 0 100 -385 0 -385 0 0
-100z M1810 1088 c-56 -150 -169 -451 -251 -668 -82 -217 -149 -398 -149 -402
0 -5 94 -8 210 -8 l209 0 33 108 34 107 240 3 241 2 12 -42 c7 -24 22 -73 33
-111 l20 -67 214 0 c151 0 214 3 214 11 0 6 -91 253 -202 548 -111 295 -223
592 -248 661 l-47 125 -230 3 -230 2 -103 -272z m343 -120 c7 -31 26 -94 81
-272 25 -82 46 -153 46 -158 0 -4 -66 -8 -146 -8 l-145 0 6 23 c4 12 26 85 50
162 24 77 53 173 65 212 22 73 33 83 43 41z M2980 685 l0 -675 208 2 207 3 3
247 2 248 148 0 c81 1 183 7 226 15 202 36 319 153 345 348 26 191 -42 356
-177 430 -96 52 -142 57 -569 57 l-393 0 0 -675z m663 381 c72 -35 99 -139 54
-207 -34 -51 -82 -70 -197 -76 l-100 -6 0 158 0 157 103 -4 c72 -3 113 -9 140
-22z M4300 685 l0 -675 208 2 207 3 3 673 2 672 -210 0 -210 0 0 -675z"/>
</g>
</svg>
